<svg xmlns="http://www.w3.org/2000/svg" viewBox="0 0 800 400" fill="none">
  <rect width="800" height="400" fill="#F9F4EC"/>

  <!-- Documents stack -->
  <g transform="translate(150, 80)">
    <!-- Back document -->
    <rect x="50" y="30" width="300" height="220" rx="8" fill="#fff" stroke="#0E7B6B" stroke-width="2" opacity="0.3"/>

    <!-- Middle document -->
    <rect x="30" y="40" width="300" height="220" rx="8" fill="#fff" stroke="#0E7B6B" stroke-width="2" opacity="0.5"/>

    <!-- Front document -->
    <rect x="10" y="50" width="300" height="220" rx="8" fill="#fff" stroke="#0E7B6B" stroke-width="3"/>

    <!-- Content lines -->
    <line x1="40" y1="90" x2="180" y2="90" stroke="#0E7B6B" stroke-width="3" opacity="0.6"/>
    <line x1="40" y1="110" x2="260" y2="110" stroke="#0E7B6B" stroke-width="2" opacity="0.3"/>
    <line x1="40" y1="130" x2="240" y2="130" stroke="#0E7B6B" stroke-width="2" opacity="0.3"/>
    <line x1="40" y1="150" x2="250" y2="150" stroke="#0E7B6B" stroke-width="2" opacity="0.3"/>

    <!-- Checkmarks -->
    <circle cx="35" cy="110" r="8" fill="#0E7B6B" opacity="0.3"/>
    <polyline points="32,110 34,113 38,107" stroke="#fff" stroke-width="2" fill="none"/>

    <circle cx="35" cy="130" r="8" fill="#0E7B6B" opacity="0.3"/>
    <polyline points="32,130 34,133 38,127" stroke="#fff" stroke-width="2" fill="none"/>

    <circle cx="35" cy="150" r="8" fill="#0E7B6B" opacity="0.3"/>
    <polyline points="32,150 34,153 38,147" stroke="#fff" stroke-width="2" fill="none"/>

    <!-- Chart/graph -->
    <g transform="translate(40, 180)">
      <polyline points="0,50 50,30 100,35 150,15 200,20" stroke="#0E7B6B" stroke-width="3" fill="none" opacity="0.4"/>
      <line x1="0" y1="50" x2="220" y2="50" stroke="#0E7B6B" stroke-width="1" opacity="0.2"/>
      <line x1="0" y1="0" x2="0" y2="50" stroke="#0E7B6B" stroke-width="1" opacity="0.2"/>
    </g>
  </g>

  <!-- Clipboard/checklist icon -->
  <g transform="translate(480, 100)">
    <rect x="0" y="20" width="180" height="240" rx="10" fill="#fff" stroke="#0E7B6B" stroke-width="3" opacity="0.6"/>
    <rect x="40" y="0" width="100" height="40" rx="8" fill="#0E7B6B" opacity="0.3"/>

    <!-- Checklist items -->
    <rect x="30" y="70" width="20" height="20" rx="3" fill="none" stroke="#0E7B6B" stroke-width="2"/>
    <polyline points="33,80 38,85 47,73" stroke="#0E7B6B" stroke-width="2" fill="none"/>
    <line x1="65" y1="80" x2="150" y2="80" stroke="#0E7B6B" stroke-width="2" opacity="0.4"/>

    <rect x="30" y="110" width="20" height="20" rx="3" fill="none" stroke="#0E7B6B" stroke-width="2"/>
    <polyline points="33,120 38,125 47,113" stroke="#0E7B6B" stroke-width="2" fill="none"/>
    <line x1="65" y1="120" x2="150" y2="120" stroke="#0E7B6B" stroke-width="2" opacity="0.4"/>

    <rect x="30" y="150" width="20" height="20" rx="3" fill="none" stroke="#0E7B6B" stroke-width="2"/>
    <polyline points="33,160 38,165 47,153" stroke="#0E7B6B" stroke-width="2" fill="none"/>
    <line x1="65" y1="160" x2="150" y2="160" stroke="#0E7B6B" stroke-width="2" opacity="0.4"/>

    <rect x="30" y="190" width="20" height="20" rx="3" fill="none" stroke="#0E7B6B" stroke-width="2"/>
    <line x1="65" y1="200" x2="150" y2="200" stroke="#0E7B6B" stroke-width="2" opacity="0.3"/>
  </g>

  <!-- Stamp/approval -->
  <g transform="translate(550, 280)" opacity="0.3">
    <circle cx="0" cy="0" r="40" fill="none" stroke="#0E7B6B" stroke-width="4"/>
    <text x="-30" y="8" font-family="system-ui" font-size="20" font-weight="bold" fill="#0E7B6B">UCE</text>
  </g>
</svg>
