<svg xmlns="http://www.w3.org/2000/svg" viewBox="0 0 800 400" fill="none">
  <rect width="800" height="400" fill="#F9F4EC"/>

  <!-- Drone frame -->
  <g transform="translate(200, 100)">
    <!-- Body -->
    <ellipse cx="200" cy="100" rx="80" ry="30" fill="#0E7B6B" opacity="0.2"/>

    <!-- Arms -->
    <line x1="140" y1="80" x2="60" y2="40" stroke="#0E7B6B" stroke-width="4" opacity="0.4"/>
    <line x1="260" y1="80" x2="340" y2="40" stroke="#0E7B6B" stroke-width="4" opacity="0.4"/>
    <line x1="140" y1="120" x2="60" y2="160" stroke="#0E7B6B" stroke-width="4" opacity="0.4"/>
    <line x1="260" y1="120" x2="340" y2="160" stroke="#0E7B6B" stroke-width="4" opacity="0.4"/>

    <!-- Propellers -->
    <circle cx="60" cy="40" r="35" fill="none" stroke="#0E7B6B" stroke-width="2" opacity="0.3"/>
    <circle cx="340" cy="40" r="35" fill="none" stroke="#0E7B6B" stroke-width="2" opacity="0.3"/>
    <circle cx="60" cy="160" r="35" fill="none" stroke="#0E7B6B" stroke-width="2" opacity="0.3"/>
    <circle cx="340" cy="160" r="35" fill="none" stroke="#0E7B6B" stroke-width="2" opacity="0.3"/>

    <!-- Camera -->
    <rect x="180" y="120" width="40" height="30" rx="5" fill="#0E7B6B" opacity="0.4"/>
    <circle cx="200" cy="135" r="12" fill="#0E7B6B" opacity="0.5"/>
  </g>

  <!-- Building being inspected -->
  <g opacity="0.25">
    <rect x="50" y="280" width="180" height="90" fill="#0E7B6B"/>
    <rect x="280" y="250" width="200" height="120" fill="#0E7B6B"/>
    <rect x="530" y="270" width="220" height="100" fill="#0E7B6B"/>

    <!-- Windows -->
    <rect x="70" y="300" width="25" height="30" fill="#F9F4EC" opacity="0.6"/>
    <rect x="110" y="300" width="25" height="30" fill="#F9F4EC" opacity="0.6"/>
    <rect x="150" y="300" width="25" height="30" fill="#F9F4EC" opacity="0.6"/>

    <rect x="300" y="270" width="30" height="35" fill="#F9F4EC" opacity="0.6"/>
    <rect x="350" y="270" width="30" height="35" fill="#F9F4EC" opacity="0.6"/>
    <rect x="400" y="270" width="30" height="35" fill="#F9F4EC" opacity="0.6"/>

    <rect x="550" y="290" width="30" height="35" fill="#F9F4EC" opacity="0.6"/>
    <rect x="600" y="290" width="30" height="35" fill="#F9F4EC" opacity="0.6"/>
    <rect x="650" y="290" width="30" height="35" fill="#F9F4EC" opacity="0.6"/>
  </g>

  <!-- Flight path -->
  <path d="M 400 150 Q 450 200, 500 180 Q 550 160, 600 200" stroke="#0E7B6B" stroke-width="2" stroke-dasharray="10,5" opacity="0.3" fill="none"/>
</svg>
