<svg xmlns="http://www.w3.org/2000/svg" viewBox="0 0 1200 600" fill="none">
  <rect width="1200" height="600" fill="#F9F4EC"/>

  <!-- Buildings -->
  <rect x="100" y="200" width="200" height="350" fill="#0E7B6B" opacity="0.15"/>
  <rect x="120" y="220" width="160" height="310" fill="#0E7B6B" opacity="0.25"/>

  <rect x="400" y="150" width="250" height="400" fill="#0E7B6B" opacity="0.2"/>
  <rect x="420" y="170" width="210" height="360" fill="#0E7B6B" opacity="0.3"/>

  <rect x="750" y="180" width="220" height="370" fill="#0E7B6B" opacity="0.18"/>
  <rect x="770" y="200" width="180" height="330" fill="#0E7B6B" opacity="0.28"/>

  <!-- Windows pattern -->
  <g opacity="0.4" fill="#0E7B6B">
    <!-- Building 1 windows -->
    <rect x="140" y="240" width="30" height="40" rx="2"/>
    <rect x="140" y="300" width="30" height="40" rx="2"/>
    <rect x="140" y="360" width="30" height="40" rx="2"/>
    <rect x="140" y="420" width="30" height="40" rx="2"/>

    <rect x="210" y="240" width="30" height="40" rx="2"/>
    <rect x="210" y="300" width="30" height="40" rx="2"/>
    <rect x="210" y="360" width="30" height="40" rx="2"/>
    <rect x="210" y="420" width="30" height="40" rx="2"/>

    <!-- Building 2 windows -->
    <rect x="440" y="190" width="40" height="50" rx="2"/>
    <rect x="440" y="260" width="40" height="50" rx="2"/>
    <rect x="440" y="330" width="40" height="50" rx="2"/>
    <rect x="440" y="400" width="40" height="50" rx="2"/>

    <rect x="520" y="190" width="40" height="50" rx="2"/>
    <rect x="520" y="260" width="40" height="50" rx="2"/>
    <rect x="520" y="330" width="40" height="50" rx="2"/>
    <rect x="520" y="400" width="40" height="50" rx="2"/>

    <rect x="600" y="190" width="40" height="50" rx="2"/>
    <rect x="600" y="260" width="40" height="50" rx="2"/>
    <rect x="600" y="330" width="40" height="50" rx="2"/>
    <rect x="600" y="400" width="40" height="50" rx="2"/>

    <!-- Building 3 windows -->
    <rect x="790" y="220" width="35" height="45" rx="2"/>
    <rect x="790" y="285" width="35" height="45" rx="2"/>
    <rect x="790" y="350" width="35" height="45" rx="2"/>
    <rect x="790" y="415" width="35" height="45" rx="2"/>

    <rect x="860" y="220" width="35" height="45" rx="2"/>
    <rect x="860" y="285" width="35" height="45" rx="2"/>
    <rect x="860" y="350" width="35" height="45" rx="2"/>
    <rect x="860" y="415" width="35" height="45" rx="2"/>
  </g>

  <!-- Clock/time indicator (UCE theme) -->
  <circle cx="1050" cy="120" r="60" fill="none" stroke="#0E7B6B" stroke-width="4" opacity="0.3"/>
  <circle cx="1050" cy="120" r="50" fill="none" stroke="#0E7B6B" stroke-width="2" opacity="0.4"/>
  <line x1="1050" y1="120" x2="1050" y2="85" stroke="#0E7B6B" stroke-width="3" opacity="0.5"/>
  <line x1="1050" y1="120" x2="1075" y2="140" stroke="#0E7B6B" stroke-width="2" opacity="0.5"/>

  <!-- Construction crane silhouette -->
  <g opacity="0.2" stroke="#0E7B6B" stroke-width="3" fill="none">
    <line x1="320" y1="550" x2="320" y2="120"/>
    <line x1="320" y1="120" x2="480" y2="120"/>
    <line x1="320" y1="140" x2="180" y2="140"/>
    <line x1="180" y1="140" x2="180" y2="150"/>
  </g>

  <!-- Ground line -->
  <rect x="0" y="550" width="1200" height="50" fill="#0E7B6B" opacity="0.1"/>
</svg>
